# xmcd
#
# Track frame offsets:
#	150
#	12573
#	33771
#	50943
#	69941
#	81950
#	101654
#	121217
#	134316
#	150344
#	163505
#	183107
#	204085
#	218911
#	234978
#	250184
#
# Disc length: 3553 seconds
# Revision: 0
# Processed by: cddbd v1.5.2PL0 Copyright (c) Steve Scherf et al.
# Submitted via: dBpowerAMP V12.0
#
DISCID=ca0ddf10
DTITLE=Various Artist - Ultimate Heartland Country Collection Disc 3
DYEAR=2002
DGENRE=Country
TTITLE0=Cathrine Britt - Hillbilly Pickin' Ramblin Girl
TTITLE1=Kasey Chambers - Pony
TTITLE2=Matt Scullion - Giddy Up
TTITLE3=Dean Perrett and Lee Kernaghan - Channel Country Ground
TTITLE4=Davidson Brothers - Raised on the Road
TTITLE5=Dianna Corcoran - Rocky Hill
TTITLE6=Gina Jeffreys - Somebod'ys Daughter
TTITLE7=Karen Lynne - Wishing Well Blues
TTITLE8=Liam Brew - Today I'd Take A River
TTITLE9=Kylie Sackley - Loves like a Train
TTITLE10=Tamara Stewart - Simple Tings
TTITLE11=Graham Rodger - The Battle of Long Tan
TTITLE12=8 Ball Aitken - Hands On Top Of The Wheel
TTITLE13=The Bobkatz - The Long Haul
TTITLE14=Luke O'shea - Good Thing It's Raining
TTITLE15=Cat Southern - The last First Kiss
EXTD=
EXTT0=
EXTT1=
EXTT2=
EXTT3=
EXTT4=
EXTT5=
EXTT6=
EXTT7=
EXTT8=
EXTT9=
EXTT10=
EXTT11=
EXTT12=
EXTT13=
EXTT14=
EXTT15=
PLAYORDER=
